<svg width="40" height="40" viewBox="0 0 40 40" fill="none" xmlns="http://www.w3.org/2000/svg">
<g clip-path="url(#clip0_22_873)">
<path d="M39.1666 14.1667H22.7449C22.4316 14.1667 22.1441 14.3425 22.0016 14.6217L19.4491 19.6358C19.3183 19.8942 19.3299 20.2025 19.4816 20.45C19.6333 20.6975 19.9024 20.8475 20.1924 20.8475L24.7949 20.8433L20.7583 28.7892C20.6274 29.0475 20.6391 29.3558 20.7908 29.6025C20.9424 29.8492 21.2108 30 21.5008 30H27.3924L32.5599 20.0033L36.6674 20C36.9824 20 39.1666 14.1667 39.1666 14.1667Z" fill="#38AC36"/>
<path d="M22.5528 14.1667H8.04031C7.72698 14.1667 7.43948 14.3425 7.29698 14.6217L4.76698 19.595C4.76115 19.605 4.75281 19.6125 4.74781 19.6225L0.0894802 28.7892C-0.0413531 29.0475 -0.0296865 29.3558 0.12198 29.6025C0.273647 29.8492 0.543647 30 0.833647 30H6.55865L8.77615 25H15.2911L17.9103 20.0033L20.002 20C20.3145 20 22.5528 14.1667 22.5528 14.1667Z" fill="#EA881F"/>
<path d="M32.501 15.8335C32.2319 15.8335 31.9669 15.7035 31.8069 15.4627C31.4594 14.9418 30.1602 14.7427 28.836 15.6068C28.4519 15.8577 27.9344 15.7493 27.6827 15.3635C27.431 14.9785 27.5402 14.4618 27.926 14.2102C29.8652 12.946 32.2294 13.0918 33.1935 14.5385C33.4494 14.921 33.346 15.4385 32.9627 15.6943C32.821 15.7885 32.6594 15.8335 32.501 15.8335Z" fill="#324561"/>
<path d="M37.5012 10.4168C37.1929 10.4168 36.8962 10.2451 36.7521 9.94926C36.0071 8.42593 32.0421 7.72426 28.6479 9.1051C28.2246 9.27843 27.7346 9.07426 27.5621 8.6476C27.3879 8.22176 27.5929 7.7351 28.0196 7.56176C31.6504 6.08343 36.9121 6.48343 38.2487 9.2176C38.4504 9.63093 38.2796 10.1301 37.8662 10.3326C37.7487 10.3893 37.6237 10.4168 37.5012 10.4168Z" fill="#324561"/>
<path d="M20 20.8334H11.6667C11.2059 20.8334 10.8334 20.4601 10.8334 20.0001C10.8334 19.5401 11.2059 19.1667 11.6667 19.1667H19.49L21.8109 14.6209C22.02 14.2109 22.5234 14.0492 22.9325 14.2576C23.3417 14.4667 23.505 14.9692 23.2959 15.3784L20.7434 20.3784C20.6 20.6584 20.3134 20.8334 20 20.8334Z" fill="#324561"/>
<path d="M27.3914 29.9998C27.2648 29.9998 27.1356 29.9707 27.0148 29.9098C26.6048 29.7015 26.4414 29.1998 26.6498 28.789L31.3073 19.6223C31.4489 19.3423 31.7364 19.1665 32.0498 19.1665H36.1514L38.4214 14.6273C38.6281 14.2157 39.1281 14.0482 39.5398 14.2548C39.9514 14.4607 40.1181 14.9615 39.9123 15.3732L37.4123 20.3732C37.2706 20.6548 36.9823 20.8332 36.6664 20.8332H32.5606L28.1348 29.544C27.9881 29.8332 27.6948 29.9998 27.3914 29.9998Z" fill="#324561"/>
<path d="M35.4177 12.8884C35.1694 12.8884 34.9235 12.7775 34.7594 12.5667C34.0894 11.7067 31.6102 11.1959 29.0885 12.3167C28.6685 12.5059 28.1752 12.315 27.9885 11.8942C27.8019 11.4742 27.991 10.9809 28.4119 10.7942C31.311 9.50421 34.7502 9.83921 36.0744 11.5434C36.3569 11.9067 36.2919 12.43 35.9285 12.7125C35.7769 12.8309 35.596 12.8884 35.4177 12.8884Z" fill="#324561"/>
<path d="M6.55732 30C6.43065 30 6.30148 29.9709 6.18065 29.91C5.77065 29.7017 5.60732 29.2 5.81565 28.7892L7.93232 24.6225C8.07398 24.3425 8.36065 24.1667 8.67482 24.1667H14.3573L16.6556 19.6234C16.864 19.2142 17.3648 19.0484 17.7756 19.2567C18.1865 19.4642 18.3506 19.9659 18.1431 20.3767L15.6131 25.3767C15.4706 25.6567 15.184 25.8334 14.8698 25.8334H9.18648L7.30148 29.5442C7.15398 29.8334 6.86065 30 6.55732 30Z" fill="#324561"/>
</g>
<defs>
<clipPath id="clip0_22_873">
<rect width="40" height="40" fill="white"/>
</clipPath>
</defs>
</svg>
